
        <svg xmlns="http://www.w3.org/2000/svg" xmlns:xlink="http://www.w3.org/1999/xlink" version="1.1" width="3164.8351648351645" 
        height="936.2637362637363" viewBox="0 0 3164.8351648351645 936.2637362637363">
			<rect fill="#3532a7" width="3164.8351648351645" height="936.2637362637363"/>
			<g transform="scale(8.241758241758241) translate(10, 10)">
				<defs id="SvgjsDefs3128"></defs><g id="SvgjsG3129" featureKey="symbolFeature-0" transform="matrix(0.7312500000000001,0,0,0.7312500000000001,0,0)" fill="#ffffff"><title xmlns="http://www.w3.org/2000/svg">95 Miscellaneous 20</title><path xmlns="http://www.w3.org/2000/svg" d="M61.9,90.6L62,35.7c0-4.7-4.3-8.7-9.4-8.7c-2.7,0-5.2,1.2-6.9,3.2c-4,0.2-7.6,2.7-9.1,6.5c-4.3,0.4-7.7,4-7.7,8.4  c0,0.9,0.2,1.8,0.5,2.7c-3.1,1.9-4.9,5.2-5,8.8c0,2.4,0.9,4.8,2.5,6.7c-3.5,3.5-3.8,9.1-0.5,12.8c-0.3,0.8-0.4,1.7-0.4,2.6  c0,4.2,2.9,7.8,6.9,8.8c0.8,4,4.2,7.1,8.3,7.5c1.8,3.7,5.5,6,9.6,6C56.8,101,61.9,96.2,61.9,90.6z M57.9,90.6c0,3.4-3.3,6.4-7.1,6.4  c-2.3,0-4.4-1.2-5.6-3.1c4.3-2.1,6.1-7.2,4.1-11.6c-0.6-1.3-1.6-2.5-2.8-3.3c-0.9-0.6-2.1-0.4-2.8,0.5c-0.6,0.9-0.4,2.1,0.5,2.8  c0,0,0,0,0,0c1.3,0.9,2,2.3,2,3.8c-0.1,2.7-2.3,4.9-5,4.8c-0.1,0-0.2,0-0.3,0c-2.3-0.6-4-2.7-4-5.1c0-1-0.8-1.9-1.9-2  c-2.7-0.2-4.9-2.4-4.9-5.1c0-0.8,0.2-1.5,0.5-2.2c0.4-0.8,0.2-1.8-0.5-2.4c-2.3-1.9-2.6-5.2-0.7-7.5c0.2-0.2,0.4-0.5,0.7-0.7  C30,66,30.2,66,30.4,66c1.1,0,2.1,0.4,3,1l1,1c0.1,0.1,0.2,0.3,0.3,0.5c0.4,0.8,0.7,1.6,0.7,2.5c0,1.1,0.9,2,2,2s2-0.9,2-2  c0-4.6-3.5-8.5-8.1-8.9c-0.1-0.1-0.2-0.2-0.2-0.2c-1.7-1.2-2.7-3.1-2.7-5.2c0-2.1,1.1-4.1,2.8-5.3c0.6-0.1,1.1-0.2,1.7-0.2  c3.4,0,6.1,2.2,6.1,5c0,1.1,0.9,2,2,2s2-0.9,2-2c0-4.8-4.2-8.7-9.6-9c-0.4-0.6-0.5-1.4-0.5-2.1c0-2.5,2.1-4.5,4.6-4.4  c0.2,0,0.3,0,0.4,0c1,0.1,1.9-0.6,2.1-1.6c0.5-2.3,2.4-4.2,4.7-4.7c0.3,0.1,0.6,0.1,0.8,0.1c1.4-0.1,2.7,0.4,3.8,1.2  c0.8,0.7,2.1,0.7,2.8-0.1s0.7-2.1-0.1-2.8l0,0c-0.5-0.5-1.1-0.9-1.7-1.2c0.7-0.4,1.5-0.6,2.3-0.6c2.8,0,5.4,2.3,5.4,4.7L57.9,90.6z"></path><path xmlns="http://www.w3.org/2000/svg" d="M66,35.7l0.1,54.9c0,5.6,5.1,10.4,11.1,10.4c4.1,0,7.8-2.3,9.6-6c4.1-0.4,7.5-3.5,8.3-7.5c4-1,6.9-4.6,6.9-8.8  c0-0.9-0.1-1.8-0.4-2.6c3.3-3.7,3-9.4-0.5-12.8c1.6-1.9,2.5-4.2,2.5-6.7c0-3.6-1.9-6.9-5-8.8c0.3-0.9,0.5-1.8,0.5-2.7  c0-4.4-3.4-8-7.7-8.4c-1.5-3.8-5.1-6.3-9.1-6.5c-1.7-2.1-4.2-3.2-6.9-3.2C70.3,27,66,31,66,35.7z M75.4,31c0.8,0,1.6,0.2,2.3,0.6  c-0.6,0.3-1.2,0.7-1.7,1.2c-0.8,0.7-0.9,2-0.1,2.8c0.7,0.8,2,0.9,2.8,0.1c1.1-0.9,2.4-1.3,3.8-1.2c0.3,0,0.6,0,0.8-0.1  c2.4,0.5,4.2,2.3,4.7,4.7c0.2,1,1.1,1.7,2.1,1.6c0.1,0,0.3,0,0.4,0c2.5,0,4.5,1.9,4.6,4.4c0,0.7-0.2,1.4-0.5,2.1  c-5.3,0.2-9.6,4.2-9.6,9c0,1.1,0.9,2,2,2s2-0.9,2-2c0-2.8,2.7-5,6.1-5c0.6,0,1.1,0.1,1.7,0.2c1.8,1.2,2.8,3.2,2.8,5.3  c0,2.1-1,4-2.7,5.2c-0.1,0.1-0.2,0.1-0.2,0.2c-2.9,0.3-5.4,1.9-6.9,4.4c-0.8,1.4-1.2,2.9-1.2,4.5c0,1.1,0.9,2,2,2s2-0.9,2-2  c0-0.9,0.2-1.7,0.7-2.5c0.1-0.2,0.2-0.3,0.3-0.5l1-1c0.9-0.6,1.9-1,3-1c0.2,0,0.4,0,0.5-0.1c2.2,1.9,2.5,5.3,0.6,7.5  c-0.2,0.2-0.4,0.5-0.7,0.7c-0.7,0.6-0.9,1.6-0.5,2.4c0.3,0.7,0.5,1.4,0.5,2.2c-0.1,2.7-2.2,4.9-4.9,5.1c-1,0.1-1.9,0.9-1.9,2  c-0.1,2.4-1.7,4.5-4,5.1c-0.1,0-0.2,0-0.3,0c-2.7,0.1-5-2.1-5-4.8c0-1.5,0.8-3,2-3.8c0.9-0.6,1.1-1.9,0.5-2.8  c-0.6-0.9-1.9-1.1-2.8-0.5c-3.9,2.7-4.9,8.1-2.1,12.1c0.9,1.2,2,2.2,3.3,2.8c-1.2,1.9-3.4,3.1-5.6,3.1c-3.8,0-7.1-3-7.1-6.4L70,35.7  C70,33.3,72.6,31,75.4,31z"></path><path xmlns="http://www.w3.org/2000/svg" d="M64,16c4.4,0,8-3.6,8-8s-3.6-8-8-8s-8,3.6-8,8C56,12.4,59.6,16,64,16C64,16,64,16,64,16z M64,4c2.2,0,4,1.8,4,4s-1.8,4-4,4  c-2.2,0-4-1.8-4-4C60,5.8,61.8,4,64,4z"></path><path xmlns="http://www.w3.org/2000/svg" d="M64,112c-4.4,0-8,3.6-8,8s3.6,8,8,8s8-3.6,8-8C72,115.6,68.4,112,64,112C64,112,64,112,64,112z M64,124c-2.2,0-4-1.8-4-4  s1.8-4,4-4c2.2,0,4,1.8,4,4C68,122.2,66.2,124,64,124z"></path><path xmlns="http://www.w3.org/2000/svg" d="M120,56c-4.4,0-8,3.6-8,8s3.6,8,8,8s8-3.6,8-8C128,59.6,124.4,56,120,56C120,56,120,56,120,56z M120,68c-2.2,0-4-1.8-4-4  c0-2.2,1.8-4,4-4s4,1.8,4,4C124,66.2,122.2,68,120,68z"></path><path xmlns="http://www.w3.org/2000/svg" d="M16,64c0-4.4-3.6-8-8-8s-8,3.6-8,8s3.6,8,8,8C12.4,72,16,68.4,16,64C16,64,16,64,16,64z M8,68c-2.2,0-4-1.8-4-4  c0-2.2,1.8-4,4-4s4,1.8,4,4C12,66.2,10.2,68,8,68z"></path><path xmlns="http://www.w3.org/2000/svg" d="M103.6,95.6c-4.4,0-8,3.6-8,8c0,4.4,3.6,8,8,8s8-3.6,8-8c0-2.1-0.8-4.2-2.3-5.7C107.8,96.4,105.7,95.6,103.6,95.6z   M106.4,106.4c-1.6,1.6-4.1,1.6-5.7,0c-1.6-1.6-1.6-4.1,0-5.7c1.6-1.6,4.1-1.6,5.7,0c0.7,0.7,1.2,1.8,1.2,2.8  C107.6,104.7,107.2,105.7,106.4,106.4z"></path><path xmlns="http://www.w3.org/2000/svg" d="M24.4,32.4c4.4,0,8-3.6,8-8c0-4.4-3.6-8-8-8c-4.4,0-8,3.6-8,8c0,2.1,0.8,4.2,2.3,5.7C20.2,31.6,22.3,32.4,24.4,32.4z   M21.6,21.6c1.6-1.6,4.1-1.6,5.7,0c1.6,1.6,1.6,4.1,0,5.7c-1.6,1.6-4.1,1.6-5.7,0c0,0,0,0,0,0C20,25.7,20,23.2,21.6,21.6  C21.5,21.6,21.6,21.6,21.6,21.6z"></path><path xmlns="http://www.w3.org/2000/svg" d="M30.1,97.9c-3.1-3.1-8.2-3.1-11.3,0s-3.1,8.2,0,11.3s8.2,3.1,11.3,0c0,0,0,0,0,0C33.2,106.2,33.2,101.1,30.1,97.9  C30.1,98,30.1,98,30.1,97.9z M27.2,106.4c-1.6,1.6-4.1,1.6-5.7,0c-1.6-1.6-1.6-4.1,0-5.7c1.6-1.6,4.1-1.6,5.7,0  c0.7,0.7,1.2,1.8,1.2,2.8C28.4,104.7,28,105.7,27.2,106.4z"></path><path xmlns="http://www.w3.org/2000/svg" d="M97.9,30.1c3.1,3.1,8.2,3.1,11.3,0c3.1-3.1,3.1-8.2,0-11.3s-8.2-3.1-11.3,0c0,0,0,0,0,0C94.8,21.8,94.8,26.9,97.9,30.1  C97.9,30,97.9,30,97.9,30.1z M100.8,21.6c1.6-1.6,4.1-1.6,5.7,0s1.6,4.1,0,5.7s-4.1,1.6-5.7,0c0,0,0,0,0,0  C99.2,25.7,99.2,23.2,100.8,21.6C100.8,21.6,100.8,21.6,100.8,21.6z"></path><path xmlns="http://www.w3.org/2000/svg" d="M54.4,41.7c0.3-1.1-0.4-2.2-1.5-2.4c-1.1-0.3-2.2,0.4-2.4,1.5c-0.6,2.2-2.6,3.7-4.8,3.7c-1.6,0-3-0.7-4-1.9  c-0.7-0.9-1.9-1-2.8-0.4c-0.9,0.7-1,1.9-0.4,2.8c3,3.9,8.7,4.7,12.6,1.6C52.7,45.4,53.9,43.7,54.4,41.7z"></path><path xmlns="http://www.w3.org/2000/svg" d="M44.4,72.9c-1.7-0.7-3.7-0.5-5.3,0.5c-2.3,1.5-3.3,4.3-2.5,7c0.3,1.1,1.5,1.6,2.5,1.3c1.1-0.3,1.6-1.5,1.3-2.5c0,0,0,0,0,0  c-0.3-0.9,0.1-1.9,0.8-2.4c0.5-0.3,1.1-0.4,1.6-0.1c1,0.4,2.2-0.1,2.6-1.1C45.9,74.5,45.4,73.4,44.4,72.9  C44.4,72.9,44.4,72.9,44.4,72.9z"></path><path xmlns="http://www.w3.org/2000/svg" d="M49.8,51.5c-1.1,0-2,0.9-2,2s0.9,2,2,2c0.8,0,1.5,0.6,1.5,1.5s-0.6,1.5-1.5,1.5c0,0,0,0,0,0c-1.1,0-2,0.9-2,2s0.9,2,2,2  c3,0,5.5-2.4,5.5-5.5C55.3,54,52.9,51.5,49.8,51.5C49.8,51.5,49.8,51.5,49.8,51.5z"></path><path xmlns="http://www.w3.org/2000/svg" d="M53.3,69.5c1.1,0,2-0.9,2-2s-0.9-2-2-2c-3,0-5.5,2.4-5.5,5.5s2.4,5.5,5.5,5.5c0,0,0,0,0,0c1.1,0,2-0.9,2-2s-0.9-2-2-2  c-0.8,0-1.5-0.6-1.5-1.5C51.8,70.2,52.4,69.5,53.3,69.5C53.3,69.5,53.3,69.5,53.3,69.5z"></path><path xmlns="http://www.w3.org/2000/svg" d="M82.3,48.5c2.8,0,5.4-1.3,7.1-3.5c0.7-0.9,0.5-2.1-0.4-2.8c-0.9-0.7-2.1-0.5-2.8,0.4l0,0c-0.9,1.2-2.4,2-4,1.9  c-2.3,0-4.3-1.5-4.8-3.7c-0.3-1.1-1.3-1.7-2.4-1.5c-1.1,0.3-1.7,1.3-1.5,2.4C74.6,45.7,78.2,48.5,82.3,48.5z"></path><path xmlns="http://www.w3.org/2000/svg" d="M82.5,75.5c0.4,1,1.6,1.5,2.6,1.1c0.5-0.2,1.1-0.2,1.6,0.2c0.8,0.5,1.1,1.5,0.8,2.4c-0.3,1.1,0.2,2.2,1.3,2.5  c1.1,0.3,2.2-0.2,2.5-1.3c0,0,0,0,0,0c0.8-2.6-0.2-5.5-2.5-6.9c-1.6-1-3.5-1.2-5.3-0.5C82.6,73.3,82.1,74.5,82.5,75.5z"></path><path xmlns="http://www.w3.org/2000/svg" d="M78.2,62.5c1.1,0,2-0.9,2-2s-0.9-2-2-2c-0.8,0-1.5-0.6-1.5-1.5c0-0.8,0.6-1.5,1.5-1.5c0,0,0,0,0,0c1.1,0,2-0.9,2-2  s-0.9-2-2-2c-3,0-5.5,2.4-5.5,5.5C72.7,60,75.1,62.5,78.2,62.5C78.2,62.5,78.2,62.5,78.2,62.5z"></path><path xmlns="http://www.w3.org/2000/svg" d="M74.7,72.5c-1.1,0-2,0.9-2,2s0.9,2,2,2c3,0,5.5-2.4,5.5-5.5c0-3-2.4-5.5-5.5-5.5c0,0,0,0,0,0c-1.1,0-2,0.9-2,2s0.9,2,2,2  c0.8,0,1.5,0.6,1.5,1.5C76.2,71.8,75.6,72.5,74.7,72.5C74.7,72.5,74.7,72.5,74.7,72.5z"></path></g><g id="SvgjsG3130" featureKey="nameFeature-0" transform="matrix(0.9193272391992515,0,0,0.9193272391992515,107.53657653174821,28.707886940031855)" fill="#ffffff"><path d="M7.0313 1.4059999999999988 l6.4063 0 l0 31.25 l19.531 0 l0 5.9375 l-25.938 0 l0 -37.188 z M47.0938 1.4059999999999988 l27.813 0 l0 5.9375 l-27.813 0 l0 -5.9375 z M47.0938 32.6562 l27.734 0 l0 5.9375 l-27.734 0 l0 -5.9375 z M47.0938 16.875 l25.078 0 l0 5.8594 l-25.078 0 l0 -5.8594 z M113.953 38.5937 l6.5625 0 l0 -27.422 l-6.5625 9.6094 l0 17.813 z M120.51599999999999 1.4059999999999988 l-7.0313 0 l-11.484 17.813 l-11.406 -17.813 l-7.0313 0 l0 37.188 l6.5625 0 l0 -26.406 l11.719 17.578 l0.23438 0 l10.234 -15.156 c0.052109 -0.20836 2.7865 -4.6094 8.2031 -13.203 z M157.609 25 c-0.36461 -0.98961 -0.88531 -1.8488 -1.5624 -2.578 c-0.46875 -0.52086 -1.224 -1.1198 -2.2656 -1.797 c-1.1459 -0.57289 -2.1615 -1.0156 -3.0469 -1.3281 c0.625 -0.36461 1.3021 -0.78125 2.0313 -1.25 c0.72914 -0.625 1.276 -1.224 1.6406 -1.7969 c0.46875 -0.625 0.85938 -1.3802 1.1719 -2.2656 c0.3125 -0.9375 0.46875 -1.9531 0.46875 -3.0469 c0 -2.9166 -1.0938 -5.2344 -3.2813 -6.9531 s-5.1563 -2.5781 -8.9063 -2.5781 l-14.453 0 l0 5.7813 l13.672 0 c1.9791 0 3.5938 0.41664 4.8438 1.25 c1.0938 0.83336 1.6406 2.0313 1.6406 3.5938 c0 1.7709 -0.625 3.0469 -1.875 3.8281 c-1.3021 0.83336 -2.9948 1.25 -5.0782 1.25 l-13.203 0 l0 5.4688 l14.609 0 c2.5 0 4.401 0.44273 5.7031 1.3281 c1.25 0.9375 1.875 2.1875 1.875 3.75 c0 1.6666 -0.625 2.9427 -1.875 3.828 c-1.3021 0.88539 -3.0469 1.3281 -5.2344 1.3281 l-15.078 0 l0 5.7813 l15 0 c2.0313 0 3.9063 -0.23438 5.625 -0.70313 c1.7709 -0.52086 3.2031 -1.1719 4.2969 -1.9531 s2.0313 -1.849 2.8125 -3.2031 c0.625 -1.25 0.9375 -2.7084 0.9375 -4.375 c0 -1.3021 -0.15625 -2.4219 -0.46875 -3.3594 z M199.781 38.5937 l-10.078 -14.063 c1.3541 -0.41664 2.552 -0.91141 3.5937 -1.4843 c1.1459 -0.72914 2.0834 -1.5364 2.8125 -2.4218 c0.83336 -0.98961 1.4323 -2.0573 1.797 -3.2032 c0.46875 -1.25 0.70313 -2.6563 0.70313 -4.2188 c0 -1.8229 -0.3125 -3.4635 -0.9375 -4.9219 c-0.625 -1.4063 -1.5365 -2.6302 -2.7344 -3.6719 c-1.1459 -0.98961 -2.6042 -1.7709 -4.3751 -2.3438 c-1.8229 -0.57289 -3.75 -0.85938 -5.7813 -0.85938 l-16.563 0 l0 5.9375 l16.016 0 c2.4479 0 4.3489 0.52086 5.703 1.5625 s2.0313 2.6041 2.0313 4.6875 c0 1.9271 -0.67711 3.4375 -2.0313 4.5313 c-1.3541 1.1459 -3.2291 1.7188 -5.625 1.7188 l-16.094 0 l0 18.75 l6.4844 0 l0 -12.969 l8.2031 0 l9.1406 12.969 l7.7344 0 l0 0 z M222.344 32.6562 c-0.78125 -0.15625 -1.5105 -0.3907 -2.1876 -0.7032 c-1.4584 -0.67711 -2.7344 -1.6146 -3.8281 -2.8125 c-1.0416 -1.0938 -1.875 -2.4479 -2.5 -4.0625 c-0.57289 -1.6146 -0.85938 -3.2552 -0.85938 -4.9219 l0 -0.15625 l0 -0.23438 c0 -1.7188 0.28648 -3.3854 0.85938 -5 c0.67711 -1.6666 1.5105 -2.9948 2.5001 -3.9844 c1.0416 -1.1979 2.2916 -2.1094 3.75 -2.7344 c0.88539 -0.41664 1.6406 -0.67703 2.2656 -0.78117 l0 -5.8594 c-1.8229 0.26039 -3.4375 0.70313 -4.8438 1.3281 c-2.2916 0.98961 -4.2448 2.3177 -5.8594 3.9844 s-2.8906 3.6458 -3.8281 5.9374 s-1.4063 4.6875 -1.4063 7.1875 l0 0.15625 l0 0.23438 c0 2.5521 0.46875 4.948 1.4063 7.1876 c0.83336 2.2396 2.0834 4.1927 3.75 5.8594 c1.6666 1.7188 3.6198 3.0469 5.8594 3.9844 c1.4063 0.625 3.0469 1.0677 4.9219 1.3281 l0 -5.9375 z M243.594 20 l0.000076294 -0.23438 c0 -2.5521 -0.46875 -4.948 -1.4063 -7.1876 c-0.9375 -2.2916 -2.2135 -4.2708 -3.8281 -5.9374 c-1.5625 -1.6666 -3.4896 -2.9688 -5.7813 -3.9063 c-1.3021 -0.625 -2.8906 -1.0677 -4.7656 -1.3281 l0 5.9375 l0.9375 0.3125 c0.46875 0.15625 0.83336 0.28648 1.0938 0.39063 c1.4584 0.67711 2.7344 1.6146 3.8281 2.8125 c1.0416 1.0938 1.875 2.4479 2.5 4.0625 c0.57289 1.6146 0.85938 3.2552 0.85938 4.9219 l0 0.15625 l0 0.23438 c0 1.7188 -0.28648 3.3854 -0.85938 5 c-0.67711 1.6666 -1.5105 2.9948 -2.5001 3.9844 c-1.0416 1.1979 -2.2916 2.1094 -3.75 2.7344 c-0.67711 0.3125 -1.3802 0.54688 -2.1094 0.70313 l0 5.9375 c1.5625 -0.20836 3.125 -0.65109 4.6875 -1.3282 c2.1354 -0.88539 4.0885 -2.2135 5.8594 -3.9844 c1.7188 -1.8229 2.9948 -3.802 3.8281 -5.9374 c0.9375 -2.2916 1.4063 -4.6875 1.4063 -7.1875 l0 -0.15625 z M253.0313 1.4059999999999988 l6.4063 0 l0 31.25 l19.531 0 l0 5.9375 l-25.938 0 l0 -37.188 z"></path></g>
			</g>
		</svg>
	